# xmcd CD database file
#
# Track frame offsets:
#	150
#	12257
#	22775
#	35852
#	50195
#	66315
#	81127
#	93735
#	109962
#	120817
#	130880
#	144082
#	160045
#	176495
#	185827
#	193805
#	204915
#	215240
#	230795
#	243292
#	254637
#	267045
#	280085
#	293525
#	310107
#	320880
#
# Disc length: 4439 seconds
#
# Revision: 0
# Processed by: cddbd v1.5.2PL0 Copyright (c) Steve Scherf et al.
# Submitted via: CDex 1.70beta2
#
DISCID=8511551a
DTITLE=Martino , Miranda - Miranda Martino
DYEAR=1997
DGENRE=Musica Italiana
TTITLE0=Gaston (Marchetti-Fidenco)
TTITLE1=Dicitincello Vuje (Fusco)
TTITLE2=Me Ne Infischio (De Lucia)
TTITLE3=Arrivederci (Calabrese-Bindi)
TTITLE4=Calda Estate D'Amore (Rascel)
TTITLE5=Stasera Tornerò (Salvi-Peguri)
TTITLE6=Il Tempo S'è Fermato (Migliacci-Polito)
TTITLE7=Stringiti Alla Mia Mano (Fidenco-Crusca)
TTITLE8=Frenesia (Meccia-Dominguez)
TTITLE9=Ma-Ma Non Mi Sgridare Più (Misselvia-Conrad)
TTITLE10=Meravigliose Labbra (Sabel-Usuelli)
TTITLE11=Scandalo Al Sole (Mogol-Franchi-Calibi-Steiner)
TTITLE12=Notte Di Luna Calante (Modugno)
TTITLE13=Meglio Stasera (Migliacci-Mancini)
TTITLE14=l'Ultimo Appuntamento (Migliacci-Enriquez)
TTITLE15=Dollar Twist (Rossi-Pelleschi)
TTITLE16=Non Ho Pietà (Migliacci-Polito)
TTITLE17=Ballata Di Una Donna Sola (Endrigo)
TTITLE18=Se io Fossi Come Te (Bardotti-Quagliero)
TTITLE19=Uno Di Voi (Bardotti-Palleschi)
TTITLE20=Un Segreto Fra Noi (Nelli-D'Onofrio-De Martino)
TTITLE21=L'Ultima Nostra Settimana D'Amore (Boncompagni-Pes-Fontana)
TTITLE22=Il Mio Mondo (Paoli-Bindi)
TTITLE23=Stagione (Musy-De Berti)
TTITLE24=Il Mio Valzer (Gianni Boncompagni)
TTITLE25=Una Rosa Nel Sole (Mallozzi-Giordano)
EXTD=YEAR: 1997
EXTT0=
EXTT1=
EXTT2=
EXTT3=
EXTT4=
EXTT5=
EXTT6=
EXTT7=
EXTT8=
EXTT9=
EXTT10=
EXTT11=
EXTT12=
EXTT13=
EXTT14=
EXTT15=
EXTT16=
EXTT17=
EXTT18=
EXTT19=
EXTT20=
EXTT21=
EXTT22=
EXTT23=
EXTT24=
EXTT25=
PLAYORDER=
